<svg xmlns="http://www.w3.org/2000/svg" fill="#5a6672" height="48" viewBox="0 96 960 960" width="48"><path d="M729.487 987.87q-51.983 0-88.768-36.594-36.784-36.594-36.784-87.993 0-6.6 1.619-16.327 1.62-9.727 4.381-17.66L319.718 660.913q-17.088 17.717-40.029 28.315-22.941 10.598-47.104 10.598-51.307 0-88.261-36.518-36.954-36.519-36.954-88.184t36.954-87.949q36.954-36.284 88.261-36.284 23.809 0 46.427 8.979 22.618 8.978 40.417 26.695l290.506-166.466q-2.761-6.936-4.381-16.209-1.619-9.273-1.619-16.668 0-51.609 36.58-87.992 36.579-36.382 88.563-36.382 50.9 0 87.726 36.357 36.826 36.356 36.826 88.021t-36.954 87.991q-36.954 36.327-88.261 36.327-25.516 0-47.299-7.232t-38.595-24.964L352.065 539.253q2 7.98 3.5 18.582t1.5 17.588q0 6.986-1.5 14.904-1.5 7.919-3.5 15.899L642.603 770.13q16.73-14.493 37.69-22.844 20.959-8.351 48.122-8.351 51.307 0 88.261 36.518 36.954 36.519 36.954 88.022 0 51.503-36.621 87.949t-87.522 36.446Zm-.779-651q21.292 0 35.77-14.356 14.479-14.355 14.479-35.576t-14.227-35.699q-14.227-14.478-35.259-14.478-21.456 0-36.159 14.223-14.703 14.222-14.703 35.182 0 21.385 14.403 36.044 14.404 14.66 35.696 14.66ZM232.143 625.152q21.292 0 35.77-14.403 14.478-14.404 14.478-35.696 0-21.292-14.227-35.77-14.227-14.479-35.258-14.479-21.456 0-36.159 14.227-14.704 14.227-14.704 35.258 0 21.457 14.404 36.16 14.403 14.703 35.696 14.703Zm496.565 288.044q21.292 0 35.77-14.404 14.479-14.403 14.479-35.696 0-21.292-14.227-35.77-14.227-14.478-35.259-14.478-21.456 0-36.159 14.227t-14.703 35.258q0 21.456 14.403 36.159 14.404 14.704 35.696 14.704Zm.575-626.761ZM232.717 574.478Zm496.566 288.044Z"/></svg>