<svg xmlns="http://www.w3.org/2000/svg" fill="#5a6672" height="48" viewBox="0 96 960 960" width="48"><path d="M650 517v-73h247v73H650Zm-290 52q-71.462 0-116.231-44.769Q199 479.463 199 408t44.769-116.231Q288.538 247 360 247q71.462 0 116.231 44.769Q521 336.537 521 408t-44.769 116.231Q431.462 569 360 569ZM25 926V817q0-39.113 18.594-69.548Q62.187 717.018 97 702q77-35 138.292-49 61.293-14 124.5-14Q423 639 484 653t138 49q34.812 16.018 53.906 45.952Q695 777.887 695 817v109H25Zm73-73h524v-36q0-16-7.825-29.674T593 768q-72-33-123.5-44.5T360 712q-58 0-110 11.5T127 768q-13.8 5.652-21.4 19.326Q98 801 98 817v36Zm262-357q38 0 63-25t25-63q0-38-25-63t-63-25q-38 0-63 25t-25 63q0 38 25 63t63 25Zm0-88Zm0 445Z"/></svg>